<?xml version="1.0" encoding="utf-8"?>
<svg xmlns="http://www.w3.org/2000/svg">
    <symbol viewBox="0 0 24 24" fill="none" stroke="currentColor" stroke-width="2" stroke-linecap="round"
            stroke-linejoin="round" id="menu">
        <line x1="4" x2="20" y1="12" y2="12"/>
        <line x1="4" x2="20" y1="6" y2="6"/>
        <line x1="4" x2="20" y1="18" y2="18"/>
    </symbol>

    <symbol viewBox="0 0 24 24" fill="none"
            stroke="currentColor" stroke-width="2" stroke-linecap="round" stroke-linejoin="round"
            id="close">
        <path d="M18 6 6 18"/>
        <path d="m6 6 12 12"/>
    </symbol>

    <symbol viewBox="0 0 24 24" fill="currentColor" stroke="currentColor"
            stroke-width="2" stroke-linecap="round" stroke-linejoin="round" id="arrow-right">
        <path d="M18 8L22 12L18 16"/>
        <path d="M2 12H22"/>
    </symbol>

    <symbol viewBox="0 0 24 24" fill="currentColor" stroke="currentColor"
            stroke-width="2" stroke-linecap="round" stroke-linejoin="round" id="star">
        <path d="M11.525 2.295a.53.53 0 0 1 .95 0l2.31 4.679a2.123 2.123 0 0 0 1.595 1.16l5.166.756a.53.53 0 0 1 .294.904l-3.736 3.638a2.123 2.123 0 0 0-.611 1.878l.882 5.14a.53.53 0 0 1-.771.56l-4.618-2.428a2.122 2.122 0 0 0-1.973 0L6.396 21.01a.53.53 0 0 1-.77-.56l.881-5.139a2.122 2.122 0 0 0-.611-1.879L2.16 9.795a.53.53 0 0 1 .294-.906l5.165-.755a2.122 2.122 0 0 0 1.597-1.16z"/>
    </symbol>

    <symbol viewBox="0 0 24 24" fill="none" stroke="currentColor"
            stroke-width="2" stroke-linecap="round" stroke-linejoin="round" id="arrow-left">
        <path d="M6 8L2 12L6 16"/>
        <path d="M2 12H22"/>
    </symbol>

    <symbol fill="none" class="flex-none" id="checkMail">
        <path d="M8.75 3.5H22V2H8.75v1.5zM3.5 23.25V8.75H2v14.5h1.5zM23 28.5h-2V30h2v-1.5zm-12 0H8.75V30H11v-1.5zm10 0h-5V30h5v-1.5zm-5 0h-5V30h5v-1.5zM2 23.25A6.75 6.75 0 008.75 30v-1.5a5.25 5.25 0 01-5.25-5.25H2zM23 30a5 5 0 005-5h-1.5a3.5 3.5 0 01-3.5 3.5V30zM22 3.5A4.5 4.5 0 0126.5 8H28a6 6 0 00-6-6v1.5zM8.75 2A6.75 6.75 0 002 8.75h1.5c0-2.9 2.35-5.25 5.25-5.25V2z"
              class="fill-gray-400"></path>
        <path d="M14.75 12.75a2 2 0 012-2h10.5a2 2 0 012 2v7.5a2 2 0 01-2 2h-10.5a2 2 0 01-2-2v-7.5z"
              class="stroke-gray-600" stroke-width="1.5"></path>
        <path d="M15.5 11.5l4.512 3.992a3 3 0 003.976 0L28.5 11.5" class="stroke-gray-600"
              stroke-width="1.5"></path>
        <path d="M9 11v4M9 19v.01" class="stroke-gray-600" stroke-width="2" stroke-linecap="round"
              stroke-linejoin="round"></path>
    </symbol>

</svg>